<svg version="1.1" id="Layer_1" xmlns="http://www.w3.org/2000/svg" xmlns:xlink="http://www.w3.org/1999/xlink" x="0px" y="0px"
	 width="100%" viewBox="0 0 7220 2308" enable-background="new 0 0 7220 2308" xml:space="preserve">
<path fill="#F5F5F5" opacity="1.000000" stroke="none" 
	d="
M2.000000,450.000000 
	C2.000000,300.672760 2.000000,151.345520 2.000000,2.013719 
	C2408.562256,2.009146 4815.124512,2.009146 7221.843750,2.009146 
	C7221.843750,771.197571 7221.843750,1540.395142 7221.843750,2309.796387 
	C4815.567383,2309.796387 2409.134766,2309.796387 2.000000,2309.796387 
	C2.000000,1691.924927 2.000000,1073.849731 2.872822,455.008789 
	C8.249509,453.821106 13.162511,455.742798 18.609575,452.115814 
	C12.370934,448.739471 7.011953,450.734100 2.000000,450.000000 
M846.155212,1398.885986 
	C855.377197,1414.597168 864.599182,1430.308350 874.403625,1447.011841 
	C892.373657,1416.645264 909.742310,1387.232056 927.173645,1357.856201 
	C944.846802,1328.072754 962.528564,1298.294067 980.305176,1268.572388 
	C997.773682,1239.365723 1015.365967,1210.232910 1033.865479,1179.468872 
	C1065.217773,1233.234497 1095.454712,1285.087158 1125.681396,1336.922485 
	C1126.810547,1336.291382 1127.606323,1336.125000 1127.878174,1335.655273 
	C1198.759766,1213.186035 1269.789917,1090.802124 1340.397095,968.174744 
	C1406.522461,853.330627 1472.198975,738.228027 1538.059814,623.231628 
	C1538.212280,622.965393 1538.251831,622.571838 1538.194580,622.265564 
	C1538.136719,621.955017 1537.892822,621.679199 1537.310303,620.635010 
	C1385.322998,620.635010 1232.914307,620.635010 1079.635132,620.635010 
	C1080.703247,623.170166 1081.325439,625.331360 1082.446045,627.192566 
	C1088.454102,637.171753 1094.672974,647.024170 1100.661255,657.014954 
	C1138.324829,719.851868 1175.937622,782.719299 1213.623413,845.542908 
	C1214.844849,847.578796 1216.672974,849.250671 1218.593140,851.538879 
	C1220.016113,848.560425 1220.753296,846.694031 1221.749878,844.978333 
	C1244.998535,804.954590 1268.342041,764.985535 1291.442505,724.876587 
	C1293.721069,720.920166 1296.587280,720.280457 1300.452515,720.408142 
	C1314.771729,720.881470 1329.095093,721.228210 1343.413330,721.725159 
	C1347.567383,721.869385 1351.709351,722.356567 1356.300659,722.721802 
	C1348.586182,735.060669 1341.066284,746.346008 1334.288818,758.060852 
	C1308.937378,801.880859 1283.987427,845.933533 1258.573242,889.716858 
	C1241.698975,918.787964 1224.100952,947.438538 1207.166870,976.475525 
	C1182.507324,1018.759094 1158.177002,1061.234497 1133.632935,1103.585693 
	C1131.242432,1107.710571 1128.336548,1111.536743 1125.306885,1116.041138 
	C1121.270874,1109.036377 1118.110962,1103.181885 1114.611572,1097.538208 
	C1089.347046,1056.791626 1064.067261,1016.054016 1038.630737,975.414856 
	C1035.614746,970.596497 1031.621094,966.389954 1027.901367,961.672424 
	C1002.112000,1006.055603 976.911133,1049.488647 951.648315,1092.885620 
	C926.310730,1136.411011 900.941223,1179.918335 874.158875,1223.715088 
	C854.446716,1191.612427 835.406677,1161.151489 816.911987,1130.362915 
	C784.879028,1077.036865 753.190552,1023.504028 721.330383,970.074219 
	C719.456848,966.932373 716.770081,965.922546 714.240723,969.095032 
	C711.586426,972.424133 709.254883,976.068726 707.190491,979.801147 
	C681.892029,1025.541870 656.680481,1071.330811 631.381531,1117.071167 
	C630.371582,1118.897217 628.713928,1120.364990 627.366394,1121.989502 
	C600.757568,1076.202271 574.532043,1030.987549 548.220337,985.823059 
	C521.910706,940.661987 495.348846,895.647095 469.203674,850.391235 
	C443.143982,805.283325 416.220367,760.656128 390.569092,713.678406 
	C411.074677,713.264709 429.691193,713.212708 448.270020,712.349792 
	C455.376068,712.019775 459.016449,714.642334 462.344269,720.677795 
	C484.691895,761.208008 507.382874,801.549194 530.050049,841.902466 
	C531.784485,844.990234 534.191833,847.700073 536.382935,850.718628 
	C579.844666,775.990356 622.865417,702.028931 665.854797,628.049194 
	C666.848572,626.339050 667.503601,624.429443 668.271729,622.593994 
	C668.378174,622.339600 668.266113,621.963806 668.179077,621.666565 
	C668.086609,621.350830 667.903381,621.061646 667.627441,620.483582 
	C666.490234,620.433411 665.209473,620.329834 663.928406,620.327087 
	C615.268433,620.221313 566.608154,620.211426 517.948608,620.006897 
	C445.308441,619.701538 372.669159,619.129883 300.028778,618.947571 
	C275.065369,618.884888 250.099762,619.641235 225.135574,620.048401 
	C222.283524,620.094910 219.434128,620.303406 214.828262,620.518982 
	C352.959656,859.244690 490.330383,1096.655884 628.623047,1335.660278 
	C659.970398,1282.676025 690.672546,1230.782349 721.540344,1178.608643 
	C762.915405,1251.657959 804.233032,1324.605713 846.155212,1398.885986 
M2203.424072,1269.000366 
	C2203.424072,1141.185181 2203.424072,1013.369873 2203.424072,884.965637 
	C2153.744629,884.965637 2105.244385,884.965637 2057.387451,884.965637 
	C2004.958618,972.474304 1952.914185,1059.341553 1900.349487,1147.077026 
	C1847.248291,1058.820557 1794.989014,971.963135 1742.470215,884.674683 
	C1694.381470,884.984863 1645.902832,884.278870 1597.302734,884.862793 
	C1597.302734,985.917847 1597.293335,1085.504395 1597.305298,1185.090820 
	C1597.317261,1284.527100 1596.871582,1383.965698 1597.226685,1483.394043 
	C1646.561768,1483.394043 1694.416138,1483.394043 1742.722046,1483.394043 
	C1742.722046,1446.159546 1742.741211,1409.584717 1742.716675,1373.009766 
	C1742.692383,1336.684204 1742.559814,1300.358521 1742.593140,1264.032959 
	C1742.626465,1227.732056 1742.025757,1191.416992 1743.191284,1155.135254 
	C1743.970459,1154.948730 1744.749634,1154.762329 1745.528809,1154.575806 
	C1791.335938,1231.683472 1837.143066,1308.791138 1882.858521,1385.744507 
	C1892.049194,1385.744507 1900.705078,1385.792847 1909.360107,1385.728149 
	C1915.506592,1385.682251 1920.100708,1383.257568 1923.001343,1377.454834 
	C1925.823608,1371.808838 1929.194702,1366.429443 1932.451416,1361.009033 
	C1970.865601,1297.076416 2009.287231,1233.148193 2047.772217,1169.257935 
	C2050.403076,1164.890625 2053.556396,1160.838257 2056.466797,1156.639404 
	C2058.122803,1178.740356 2058.104980,1200.248535 2058.127686,1221.756714 
	C2058.150879,1243.751953 2058.249512,1265.747192 2058.249756,1287.742432 
	C2058.250244,1309.404419 2058.165527,1331.066528 2058.124023,1352.728516 
	C2058.081787,1374.723755 2058.032715,1396.718872 2058.013428,1418.714111 
	C2057.994629,1440.205811 2058.009277,1461.697510 2058.009277,1483.031250 
	C2076.230713,1485.115234 2196.293213,1484.057007 2203.425293,1481.897461 
	C2203.425293,1411.598511 2203.425293,1341.299438 2203.424072,1269.000366 
M4445.403809,1335.000488 
	C4445.494141,1281.014648 4445.553223,1227.028809 4445.722168,1173.043213 
	C4445.739258,1167.594849 4445.024414,1161.938354 4448.326172,1155.504639 
	C4450.719727,1159.501221 4452.574219,1162.555054 4454.387695,1165.632812 
	C4470.944336,1193.728394 4487.376953,1221.898315 4504.075195,1249.909668 
	C4527.259766,1288.801636 4550.800293,1327.482178 4573.877930,1366.437012 
	C4586.613281,1387.934082 4586.565430,1388.109253 4611.269043,1385.485840 
	C4618.750000,1384.691406 4624.451172,1382.275391 4627.256348,1374.641113 
	C4628.617676,1370.937012 4630.937988,1367.564209 4632.980469,1364.134399 
	C4662.791992,1314.073853 4692.540527,1263.975342 4722.506348,1214.007080 
	C4734.555664,1193.914185 4747.094238,1174.114624 4759.409668,1154.181396 
	C4759.871094,1154.317749 4760.333008,1154.453979 4760.794434,1154.590210 
	C4760.794434,1263.945312 4760.794434,1373.300537 4760.794434,1483.050293 
	C4809.599609,1483.050293 4857.673340,1483.050293 4905.670410,1483.050293 
	C4905.670410,1283.309692 4905.670410,1084.509766 4905.670410,885.032227 
	C4856.451660,885.032227 4807.912109,885.032227 4759.538086,885.032227 
	C4707.337891,972.097900 4655.185547,1059.083862 4602.368652,1147.178711 
	C4549.405762,1058.978516 4497.062500,971.809875 4445.154785,885.366638 
	C4396.528320,885.366638 4348.338379,885.366638 4300.466797,885.366638 
	C4299.935059,886.874634 4299.529785,887.495117 4299.522461,888.120300 
	C4299.170410,917.092102 4298.666504,946.063782 4298.594727,975.036621 
	C4298.542480,996.005676 4299.289062,1016.975952 4299.301758,1037.945923 
	C4299.390625,1182.578125 4299.377930,1327.210327 4299.420410,1471.842529 
	C4299.421387,1475.703125 4299.679688,1479.563721 4299.840332,1484.038940 
	C4349.062988,1483.631348 4397.192871,1484.130859 4445.406250,1483.175903 
	C4445.406250,1433.610474 4445.406250,1385.305420 4445.403809,1335.000488 
M2936.977783,884.612244 
	C2898.149902,884.619202 2859.322021,884.626160 2820.623047,884.633057 
	C2820.623047,1085.213257 2820.623047,1284.312012 2820.623047,1483.231201 
	C2869.382324,1483.231201 2917.212891,1483.231201 2964.799561,1483.231201 
	C2964.799561,1444.674683 2964.799805,1407.112183 2964.799561,1369.549683 
	C2964.799316,1331.892944 2964.678955,1294.235718 2964.831787,1256.579590 
	C2964.983398,1219.292603 2964.088623,1181.976562 2966.012451,1142.476196 
	C2968.985352,1146.400757 2970.494873,1148.144775 2971.732666,1150.063965 
	C2998.622559,1191.752686 3025.551758,1233.416382 3052.329834,1275.176758 
	C3084.684326,1325.633667 3116.935547,1376.156982 3149.166992,1426.692505 
	C3159.190430,1442.407959 3169.690186,1457.882080 3178.607666,1474.211914 
	C3182.751953,1481.801025 3187.091064,1484.550171 3195.508057,1484.374634 
	C3227.822266,1483.700806 3260.150391,1483.682983 3292.473145,1483.431030 
	C3296.720703,1483.397949 3300.968750,1483.426514 3305.259277,1483.426514 
	C3305.259277,1283.451904 3305.259277,1084.736450 3305.259277,885.371338 
	C3256.590820,885.371338 3208.806396,885.371338 3159.958252,885.371338 
	C3159.958252,985.650879 3159.958252,1085.264771 3159.958252,1187.044434 
	C3156.218262,1181.980713 3153.707520,1178.947266 3151.590820,1175.659912 
	C3122.390869,1130.311646 3093.149170,1084.989380 3064.128174,1039.526733 
	C3050.334961,1017.918457 3037.206055,995.885376 3023.376221,974.301147 
	C3009.013428,951.885437 2994.134277,929.801086 2979.552246,907.525024 
	C2974.825684,900.304565 2970.325439,892.936279 2965.721436,885.635620 
	C2956.802490,885.294128 2947.883301,884.952637 2936.977783,884.612244 
M3667.000244,884.686890 
	C3653.003906,884.691284 3639.007568,884.699158 3625.011230,884.699036 
	C3611.348877,884.698975 3597.685303,884.593201 3584.024170,884.713562 
	C3570.191650,884.835449 3556.311279,884.018433 3542.708984,885.201843 
	C3542.708984,1085.200195 3542.708984,1283.938599 3542.708984,1483.144653 
	C3547.565430,1483.391846 3551.513916,1483.763794 3555.463135,1483.768433 
	C3633.771240,1483.860474 3712.079834,1484.060547 3790.387207,1483.861328 
	C3809.678711,1483.812256 3828.968018,1482.452759 3848.255615,1481.631592 
	C3849.785400,1481.566284 3852.347900,1481.392456 3852.644287,1480.600342 
	C3854.950439,1474.439209 3860.666016,1475.396606 3865.250732,1474.273438 
	C3882.607910,1470.021118 3900.711182,1468.719971 3916.865234,1459.841675 
	C3929.017090,1453.162842 3942.969971,1450.333862 3954.578125,1442.236816 
	C3968.224121,1432.718506 3983.120361,1424.807617 3995.939697,1414.323242 
	C4040.289307,1378.052490 4071.749512,1332.643188 4089.770752,1278.017700 
	C4100.313965,1246.058960 4106.006348,1213.114502 4104.739258,1179.767944 
	C4102.645508,1124.655762 4087.584473,1072.972168 4057.650635,1025.980347 
	C4045.228760,1006.479858 4031.688721,987.789551 4014.714600,972.316956 
	C3989.606689,949.429565 3962.685059,928.739014 3931.056885,915.102905 
	C3913.951660,907.728210 3897.065674,899.833191 3878.434082,896.923645 
	C3873.503418,896.153625 3868.546875,895.507812 3863.655762,894.535767 
	C3860.348145,893.878357 3857.134033,892.750000 3853.059326,891.601562 
	C3855.144287,890.207214 3856.024658,889.618408 3856.905029,889.029541 
	C3794.194336,882.894409 3731.564453,885.344299 3667.000244,884.686890 
M6850.572754,1240.996582 
	C6850.765625,1124.363525 6850.962891,1007.730408 6851.114258,891.097168 
	C6851.116211,889.249695 6850.545410,887.401367 6850.202637,885.308594 
	C6801.833008,885.308594 6754.041992,885.308594 6705.090820,885.308594 
	C6705.090820,959.488159 6705.090820,1032.909790 6705.090820,1106.433350 
	C6624.144043,1106.433350 6544.359375,1106.433350 6463.564453,1106.433350 
	C6463.564453,1032.569092 6463.564453,959.425781 6463.564453,885.439636 
	C6414.779297,885.439636 6367.004395,885.439636 6319.262207,885.439636 
	C6317.054688,908.181335 6317.987305,1475.212280 6320.385254,1483.757202 
	C6367.985840,1483.356323 6415.770020,1484.265381 6464.194336,1483.224976 
	C6464.194336,1403.734863 6464.194336,1325.550171 6464.194336,1246.859131 
	C6544.931641,1246.859131 6624.999512,1246.859131 6705.479004,1246.859131 
	C6705.479004,1273.738892 6705.476562,1300.010864 6705.479980,1326.282959 
	C6705.483887,1352.612305 6705.360840,1378.942505 6705.538086,1405.270752 
	C6705.713867,1431.421387 6705.013184,1457.600342 6706.291504,1484.176147 
	C6755.342285,1482.979248 6803.205566,1484.599976 6850.573242,1483.092163 
	C6850.573242,1402.222290 6850.573242,1322.608398 6850.572754,1240.996582 
M5429.000488,1107.229248 
	C5381.126465,1107.033691 5333.244629,1107.492432 5285.492188,1106.866577 
	C5285.492188,1078.674561 5285.492188,1051.876465 5285.492188,1024.285645 
	C5362.234863,1024.285645 5438.079590,1024.285645 5515.283203,1024.285645 
	C5516.096680,977.419373 5515.599121,931.359253 5515.395020,885.135742 
	C5388.878418,885.135742 5263.740723,885.135742 5138.185547,885.135742 
	C5137.979004,887.947449 5137.679199,890.201965 5137.667480,892.457886 
	C5137.511719,923.075378 5137.267090,953.693298 5137.294922,984.310852 
	C5137.361816,1057.621826 5137.637207,1130.932861 5137.688965,1204.243896 
	C5137.751953,1293.550659 5137.666016,1382.857300 5137.672363,1472.164062 
	C5137.672363,1475.979736 5137.945801,1479.795288 5138.098633,1483.795532 
	C5265.974609,1483.915405 5392.431152,1484.184692 5518.727539,1483.552734 
	C5518.727539,1436.077271 5518.727539,1389.957642 5518.727539,1343.369873 
	C5440.609375,1343.369873 5363.398926,1343.369873 5285.428223,1343.369873 
	C5285.428223,1311.117798 5285.428223,1279.343140 5285.428223,1246.395752 
	C5355.274414,1246.395752 5424.380371,1246.395752 5493.557129,1246.395752 
	C5493.557129,1199.436157 5493.557129,1153.651855 5493.557129,1107.227905 
	C5472.288574,1107.227905 5451.644531,1107.227905 5429.000488,1107.229248 
M5767.075195,916.095215 
	C5737.419922,938.224976 5718.591309,967.661438 5708.873047,1003.072021 
	C5703.262695,1023.515747 5702.462402,1044.441284 5703.755859,1065.509766 
	C5706.925293,1117.130615 5728.275879,1158.905029 5770.783691,1189.145874 
	C5792.604492,1204.670166 5816.163574,1217.047241 5841.479004,1225.739258 
	C5875.728027,1237.498047 5910.292969,1248.344116 5944.469727,1260.304077 
	C5954.694336,1263.881958 5964.633789,1269.039917 5973.632324,1275.072266 
	C5979.116211,1278.748169 5984.080078,1284.838379 5986.631348,1290.948975 
	C5995.075195,1311.175049 5982.942383,1336.319214 5962.189941,1343.752197 
	C5955.623047,1346.104370 5948.858398,1348.071289 5942.597168,1351.075317 
	C5932.023926,1356.148315 5921.111816,1357.203369 5909.596680,1356.389526 
	C5895.116211,1355.366089 5881.732910,1350.459961 5868.012695,1346.415283 
	C5854.548340,1342.445679 5842.988770,1335.757324 5832.802734,1326.367920 
	C5818.178711,1312.888184 5806.718262,1297.293701 5801.200195,1277.383545 
	C5758.880371,1301.104980 5718.149414,1326.023926 5676.849121,1351.300537 
	C5681.569824,1360.209351 5685.657227,1368.160522 5689.955566,1375.995972 
	C5718.750000,1428.484497 5762.571289,1462.723511 5818.964355,1481.271851 
	C5830.942871,1485.211548 5843.677734,1486.798706 5855.788574,1490.396484 
	C5883.107910,1498.511719 5911.205566,1500.681519 5938.932617,1496.687134 
	C5970.744141,1492.104492 6002.379395,1485.091797 6031.870117,1471.240845 
	C6060.750000,1457.676636 6085.583984,1438.618896 6103.869141,1412.531128 
	C6132.185547,1372.131470 6140.890137,1327.127808 6131.530762,1278.578735 
	C6126.120605,1250.514038 6114.322266,1225.726562 6096.556641,1203.297607 
	C6072.655273,1173.122314 6039.638184,1155.855347 6007.038086,1137.814331 
	C6006.758789,1137.660034 6006.395996,1137.664795 6006.083984,1137.560425 
	C5987.907227,1131.488647 5969.662109,1125.611572 5951.587891,1119.247437 
	C5943.464355,1116.387085 5935.969727,1111.074341 5927.687500,1109.473022 
	C5911.382812,1106.320679 5897.092285,1098.307373 5881.822266,1092.737061 
	C5869.958008,1088.408936 5860.508301,1080.333008 5853.160645,1070.163940 
	C5843.403320,1056.660645 5846.280273,1036.436157 5860.384277,1027.906616 
	C5879.326172,1016.451477 5899.800293,1010.009033 5922.300293,1017.138062 
	C5927.684082,1018.843994 5933.010254,1020.918396 5938.524414,1021.989746 
	C5949.475098,1024.117188 5958.076172,1029.558472 5965.303223,1037.982666 
	C5976.322754,1050.827026 5988.170898,1063.012939 5993.898926,1079.798706 
	C5997.554199,1077.083496 6000.079590,1074.897461 6002.889160,1073.175537 
	C6013.035645,1066.957275 6023.326172,1060.974731 6033.470703,1054.753662 
	C6045.389648,1047.443970 6057.078125,1039.749512 6069.114258,1032.641357 
	C6082.585938,1024.685181 6096.438965,1017.376343 6109.918457,1009.432800 
	C6116.627441,1005.479065 6117.125977,1003.934326 6113.770996,997.367371 
	C6109.392578,988.797791 6105.133789,979.970032 6099.390625,972.330505 
	C6077.240723,942.863892 6052.349609,916.744873 6018.923340,898.985474 
	C5996.466309,887.054382 5972.693359,880.309692 5948.620605,874.355652 
	C5925.530273,868.644409 5901.602539,870.534668 5877.949219,871.442627 
	C5866.868164,871.867981 5856.227539,874.211182 5845.755859,877.758484 
	C5833.801270,881.808105 5821.073730,884.203857 5809.895508,889.759399 
	C5795.366211,896.980347 5782.033203,906.606628 5767.075195,916.095215 
M907.293518,633.784851 
	C937.424927,686.742065 967.653076,739.644592 997.663696,792.670166 
	C1036.822754,861.859924 1075.799561,931.152771 1114.896606,1000.377747 
	C1117.131592,1004.335083 1119.742554,1008.080078 1122.441528,1012.338928 
	C1144.017700,975.968201 1165.015503,940.572510 1186.516968,904.327576 
	C1084.403809,729.201599 981.783142,553.202332 879.111694,377.232697 
	C878.690491,376.510803 877.539673,376.214569 875.859985,375.188110 
	C872.251526,381.257172 868.697693,387.153503 865.220947,393.095001 
	C845.721741,426.418091 826.114075,459.678497 806.780396,493.097382 
	C763.923523,567.176453 721.217529,641.342712 678.430847,715.462402 
	C643.134216,776.606995 607.817871,837.740234 572.479248,898.860535 
	C570.308655,902.614746 568.213074,905.561401 571.282166,910.518799 
	C589.662720,940.208801 607.549255,970.204407 625.649292,1000.068604 
	C627.852417,1003.703674 630.342224,1007.165039 633.526062,1011.949463 
	C715.099792,867.978088 796.056213,725.096252 877.113525,582.036377 
	C886.839661,598.762512 896.664795,615.658813 907.293518,633.784851 
M2481.000000,1483.886353 
	C2515.177490,1483.770874 2549.354980,1483.655396 2583.347168,1483.540527 
	C2583.347168,1283.351929 2583.347168,1084.637085 2583.347168,885.096680 
	C2534.707275,884.711792 2486.602051,884.523132 2438.450684,885.139160 
	C2438.450684,1085.387207 2438.450684,1284.417847 2438.450684,1483.893921 
	C2452.460205,1483.893921 2465.730225,1483.893921 2481.000000,1483.886353 
M1047.954956,1473.037231 
	C1062.424194,1448.327637 1076.753784,1423.534058 1091.486328,1398.982422 
	C1094.265503,1394.350830 1094.622925,1390.707275 1091.838867,1386.185181 
	C1086.254150,1377.113892 1081.129395,1367.758911 1075.526978,1358.699097 
	C1060.167603,1333.860596 1044.659302,1309.114136 1029.092163,1284.142578 
	C1012.030090,1314.672485 995.381042,1344.545288 978.652222,1374.373535 
	C961.712463,1404.577515 944.763672,1434.776855 927.690002,1464.905273 
	C910.936768,1494.468262 894.021484,1523.939331 877.027039,1553.714233 
	C826.099976,1463.127808 775.817810,1373.688599 725.278198,1283.791382 
	C703.826721,1318.876221 683.067627,1352.975830 662.095703,1386.943970 
	C659.454102,1391.222656 660.910156,1394.167480 663.051880,1397.831787 
	C691.273926,1446.119507 719.390381,1494.469116 747.509827,1542.816772 
	C773.765198,1587.959595 800.125854,1633.042114 826.180786,1678.300293 
	C841.292358,1704.549561 855.892578,1731.093262 870.723389,1757.504150 
	C872.100403,1759.956421 873.480042,1762.406982 875.113159,1765.311279 
	C876.698914,1763.851318 877.935974,1763.142212 878.561951,1762.074707 
	C934.803467,1666.162964 990.998169,1570.223755 1047.954956,1473.037231 
M854.934753,731.897095 
	C832.419739,771.185547 809.913696,810.479065 787.384949,849.759583 
	C778.963806,864.442627 770.489624,879.095215 761.806213,894.166809 
	C800.367676,958.656250 838.727600,1022.808655 877.341003,1087.385010 
	C878.801697,1085.530640 880.398071,1083.865967 881.580322,1081.946289 
	C892.578186,1064.089600 903.511658,1046.193359 914.450073,1028.300171 
	C925.548523,1010.145325 937.470093,992.431274 947.520874,973.713196 
	C961.995544,946.755981 977.349609,920.411377 994.537292,895.023010 
	C974.812256,862.292419 954.976257,829.203552 934.964966,796.221130 
	C915.060913,763.415588 897.062256,729.445557 875.368652,696.576599 
	C868.334167,708.731140 862.000366,719.675049 854.934753,731.897095 
z"/>
<path fill="#8B8B8F" opacity="1.000000" stroke="none" 
	d="
M2.000000,450.666656 
	C7.011953,450.734100 12.370934,448.739471 18.609575,452.115814 
	C13.162511,455.742798 8.249509,453.821106 2.872822,454.121582 
	C2.000000,453.111115 2.000000,452.222198 2.000000,450.666656 
z"/>
<path fill="#2563EB" opacity="1.000000" stroke="none" 
	d="
M845.852966,1398.219727 
	C804.233032,1324.605713 762.915405,1251.657959 721.540344,1178.608643 
	C690.672546,1230.782349 659.970398,1282.676025 628.623047,1335.660278 
	C490.330383,1096.655884 352.959656,859.244690 214.828262,620.518982 
	C219.434128,620.303406 222.283524,620.094910 225.135574,620.048401 
	C250.099762,619.641235 275.065369,618.884888 300.028778,618.947571 
	C372.669159,619.129883 445.308441,619.701538 517.948608,620.006897 
	C566.608154,620.211426 615.268433,620.221313 663.928406,620.327087 
	C665.209473,620.329834 666.490234,620.433411 667.627441,620.483582 
	C667.903381,621.061646 668.086609,621.350830 668.179077,621.666565 
	C668.266113,621.963806 668.378174,622.339600 668.271729,622.593994 
	C667.503601,624.429443 666.848572,626.339050 665.854797,628.049194 
	C622.865417,702.028931 579.844666,775.990356 536.382935,850.718628 
	C534.191833,847.700073 531.784485,844.990234 530.050049,841.902466 
	C507.382874,801.549194 484.691895,761.208008 462.344269,720.677795 
	C459.016449,714.642334 455.376068,712.019775 448.270020,712.349792 
	C429.691193,713.212708 411.074677,713.264709 390.569092,713.678406 
	C416.220367,760.656128 443.143982,805.283325 469.203674,850.391235 
	C495.348846,895.647095 521.910706,940.661987 548.220337,985.823059 
	C574.532043,1030.987549 600.757568,1076.202271 627.366394,1121.989502 
	C628.713928,1120.364990 630.371582,1118.897217 631.381531,1117.071167 
	C656.680481,1071.330811 681.892029,1025.541870 707.190491,979.801147 
	C709.254883,976.068726 711.586426,972.424133 714.240723,969.095032 
	C716.770081,965.922546 719.456848,966.932373 721.330383,970.074219 
	C753.190552,1023.504028 784.879028,1077.036865 816.911987,1130.362915 
	C835.406677,1161.151489 854.446716,1191.612427 874.158875,1223.715088 
	C900.941223,1179.918335 926.310730,1136.411011 951.648315,1092.885620 
	C976.911133,1049.488647 1002.112000,1006.055603 1027.901367,961.672424 
	C1031.621094,966.389954 1035.614746,970.596497 1038.630737,975.414856 
	C1064.067261,1016.054016 1089.347046,1056.791626 1114.611572,1097.538208 
	C1118.110962,1103.181885 1121.270874,1109.036377 1125.306885,1116.041138 
	C1128.336548,1111.536743 1131.242432,1107.710571 1133.632935,1103.585693 
	C1158.177002,1061.234497 1182.507324,1018.759094 1207.166870,976.475525 
	C1224.100952,947.438538 1241.698975,918.787964 1258.573242,889.716858 
	C1283.987427,845.933533 1308.937378,801.880859 1334.288818,758.060852 
	C1341.066284,746.346008 1348.586182,735.060669 1356.300659,722.721802 
	C1351.709351,722.356567 1347.567383,721.869385 1343.413330,721.725159 
	C1329.095093,721.228210 1314.771729,720.881470 1300.452515,720.408142 
	C1296.587280,720.280457 1293.721069,720.920166 1291.442505,724.876587 
	C1268.342041,764.985535 1244.998535,804.954590 1221.749878,844.978333 
	C1220.753296,846.694031 1220.016113,848.560425 1218.593140,851.538879 
	C1216.672974,849.250671 1214.844849,847.578796 1213.623413,845.542908 
	C1175.937622,782.719299 1138.324829,719.851868 1100.661255,657.014954 
	C1094.672974,647.024170 1088.454102,637.171753 1082.446045,627.192566 
	C1081.325439,625.331360 1080.703247,623.170166 1079.635132,620.635010 
	C1232.914307,620.635010 1385.322998,620.635010 1537.310303,620.635010 
	C1537.892822,621.679199 1538.136719,621.955017 1538.194580,622.265564 
	C1538.251831,622.571838 1538.212280,622.965393 1538.059814,623.231628 
	C1472.198975,738.228027 1406.522461,853.330627 1340.397095,968.174744 
	C1269.789917,1090.802124 1198.759766,1213.186035 1127.878174,1335.655273 
	C1127.606323,1336.125000 1126.810547,1336.291382 1125.681396,1336.922485 
	C1095.454712,1285.087158 1065.217773,1233.234497 1033.865479,1179.468872 
	C1015.365967,1210.232910 997.773682,1239.365723 980.305176,1268.572388 
	C962.528564,1298.294067 944.846802,1328.072754 927.173645,1357.856201 
	C909.742310,1387.232056 892.373657,1416.645264 874.403625,1447.011841 
	C864.599182,1430.308350 855.377197,1414.597168 845.852966,1398.219727 
z"/>
<path fill="#020202" opacity="1.000000" stroke="none" 
	d="
M2203.424805,1270.000488 
	C2203.425293,1341.299438 2203.425293,1411.598511 2203.421143,1481.897461 
	C2196.293213,1484.057007 2076.230713,1485.115234 2058.009277,1483.031250 
	C2058.009277,1461.697510 2057.994629,1440.205811 2058.013428,1418.714111 
	C2058.032715,1396.718872 2058.081787,1374.723755 2058.124023,1352.728516 
	C2058.165527,1331.066528 2058.250244,1309.404419 2058.249756,1287.742432 
	C2058.249512,1265.747192 2058.150879,1243.751953 2058.127686,1221.756714 
	C2058.104980,1200.248535 2058.122803,1178.740356 2056.466797,1156.639404 
	C2053.556396,1160.838257 2050.403076,1164.890625 2047.772217,1169.257935 
	C2009.287231,1233.148193 1970.865601,1297.076416 1932.451416,1361.009033 
	C1929.194702,1366.429443 1925.823608,1371.808838 1923.001343,1377.454834 
	C1920.100708,1383.257568 1915.506592,1385.682251 1909.360107,1385.728149 
	C1900.705078,1385.792847 1892.049194,1385.744507 1882.858521,1385.744507 
	C1837.143066,1308.791138 1791.335938,1231.683472 1745.528809,1154.575806 
	C1744.749634,1154.762329 1743.970459,1154.948730 1743.191284,1155.135254 
	C1742.025757,1191.416992 1742.626465,1227.732056 1742.593140,1264.032959 
	C1742.559814,1300.358521 1742.692383,1336.684204 1742.716675,1373.009766 
	C1742.741211,1409.584717 1742.722046,1446.159546 1742.722046,1483.394043 
	C1694.416138,1483.394043 1646.561768,1483.394043 1597.226685,1483.394043 
	C1596.871582,1383.965698 1597.317261,1284.527100 1597.305298,1185.090820 
	C1597.293335,1085.504395 1597.302734,985.917847 1597.302734,884.862793 
	C1645.902832,884.278870 1694.381470,884.984863 1742.470215,884.674683 
	C1794.989014,971.963135 1847.248291,1058.820557 1900.349487,1147.077026 
	C1952.914185,1059.341553 2004.958618,972.474304 2057.387451,884.965637 
	C2105.244385,884.965637 2153.744629,884.965637 2203.424072,884.965637 
	C2203.424072,1013.369873 2203.424072,1141.185181 2203.424805,1270.000488 
z"/>
<path fill="#020202" opacity="1.000000" stroke="none" 
	d="
M4445.405273,1336.000488 
	C4445.406250,1385.305420 4445.406250,1433.610474 4445.406250,1483.175903 
	C4397.192871,1484.130859 4349.062988,1483.631348 4299.840332,1484.038940 
	C4299.679688,1479.563721 4299.421387,1475.703125 4299.420410,1471.842529 
	C4299.377930,1327.210327 4299.390625,1182.578125 4299.301758,1037.945923 
	C4299.289062,1016.975952 4298.542480,996.005676 4298.594727,975.036621 
	C4298.666504,946.063782 4299.170410,917.092102 4299.522461,888.120300 
	C4299.529785,887.495117 4299.935059,886.874634 4300.466797,885.366638 
	C4348.338379,885.366638 4396.528320,885.366638 4445.154785,885.366638 
	C4497.062500,971.809875 4549.405762,1058.978516 4602.368652,1147.178711 
	C4655.185547,1059.083862 4707.337891,972.097900 4759.538086,885.032227 
	C4807.912109,885.032227 4856.451660,885.032227 4905.670410,885.032227 
	C4905.670410,1084.509766 4905.670410,1283.309692 4905.670410,1483.050293 
	C4857.673340,1483.050293 4809.599609,1483.050293 4760.794434,1483.050293 
	C4760.794434,1373.300537 4760.794434,1263.945312 4760.794434,1154.590210 
	C4760.333008,1154.453979 4759.871094,1154.317749 4759.409668,1154.181396 
	C4747.094238,1174.114624 4734.555664,1193.914185 4722.506348,1214.007080 
	C4692.540527,1263.975342 4662.791992,1314.073853 4632.980469,1364.134399 
	C4630.937988,1367.564209 4628.617676,1370.937012 4627.256348,1374.641113 
	C4624.451172,1382.275391 4618.750000,1384.691406 4611.269043,1385.485840 
	C4586.565430,1388.109253 4586.613281,1387.934082 4573.877930,1366.437012 
	C4550.800293,1327.482178 4527.259766,1288.801636 4504.075195,1249.909668 
	C4487.376953,1221.898315 4470.944336,1193.728394 4454.387695,1165.632812 
	C4452.574219,1162.555054 4450.719727,1159.501221 4448.326172,1155.504639 
	C4445.024414,1161.938354 4445.739258,1167.594849 4445.722168,1173.043213 
	C4445.553223,1227.028809 4445.494141,1281.014648 4445.405273,1336.000488 
z"/>
<path fill="#020202" opacity="1.000000" stroke="none" 
	d="
M2937.971191,884.611694 
	C2947.883301,884.952637 2956.802490,885.294128 2965.721436,885.635620 
	C2970.325439,892.936279 2974.825684,900.304565 2979.552246,907.525024 
	C2994.134277,929.801086 3009.013428,951.885437 3023.376221,974.301147 
	C3037.206055,995.885376 3050.334961,1017.918457 3064.128174,1039.526733 
	C3093.149170,1084.989380 3122.390869,1130.311646 3151.590820,1175.659912 
	C3153.707520,1178.947266 3156.218262,1181.980713 3159.958252,1187.044434 
	C3159.958252,1085.264771 3159.958252,985.650879 3159.958252,885.371338 
	C3208.806396,885.371338 3256.590820,885.371338 3305.259277,885.371338 
	C3305.259277,1084.736450 3305.259277,1283.451904 3305.259277,1483.426514 
	C3300.968750,1483.426514 3296.720703,1483.397949 3292.473145,1483.431030 
	C3260.150391,1483.682983 3227.822266,1483.700806 3195.508057,1484.374634 
	C3187.091064,1484.550171 3182.751953,1481.801025 3178.607666,1474.211914 
	C3169.690186,1457.882080 3159.190430,1442.407959 3149.166992,1426.692505 
	C3116.935547,1376.156982 3084.684326,1325.633667 3052.329834,1275.176758 
	C3025.551758,1233.416382 2998.622559,1191.752686 2971.732666,1150.063965 
	C2970.494873,1148.144775 2968.985352,1146.400757 2966.012451,1142.476196 
	C2964.088623,1181.976562 2964.983398,1219.292603 2964.831787,1256.579590 
	C2964.678955,1294.235718 2964.799316,1331.892944 2964.799561,1369.549683 
	C2964.799805,1407.112183 2964.799561,1444.674683 2964.799561,1483.231201 
	C2917.212891,1483.231201 2869.382324,1483.231201 2820.623047,1483.231201 
	C2820.623047,1284.312012 2820.623047,1085.213257 2820.623047,884.633057 
	C2859.322021,884.626160 2898.149902,884.619202 2937.971191,884.611694 
z"/>
<path fill="#020202" opacity="1.000000" stroke="none" 
	d="
M3668.000488,884.687012 
	C3731.564453,885.344299 3794.194336,882.894409 3856.905029,889.029541 
	C3856.024658,889.618408 3855.144287,890.207214 3853.059326,891.601562 
	C3857.134033,892.750000 3860.348145,893.878357 3863.655762,894.535767 
	C3868.546875,895.507812 3873.503418,896.153625 3878.434082,896.923645 
	C3897.065674,899.833191 3913.951660,907.728210 3931.056885,915.102905 
	C3962.685059,928.739014 3989.606689,949.429565 4014.714600,972.316956 
	C4031.688721,987.789551 4045.228760,1006.479858 4057.650635,1025.980347 
	C4087.584473,1072.972168 4102.645508,1124.655762 4104.739258,1179.767944 
	C4106.006348,1213.114502 4100.313965,1246.058960 4089.770752,1278.017700 
	C4071.749512,1332.643188 4040.289307,1378.052490 3995.939697,1414.323242 
	C3983.120361,1424.807617 3968.224121,1432.718506 3954.578125,1442.236816 
	C3942.969971,1450.333862 3929.017090,1453.162842 3916.865234,1459.841675 
	C3900.711182,1468.719971 3882.607910,1470.021118 3865.250732,1474.273438 
	C3860.666016,1475.396606 3854.950439,1474.439209 3852.644287,1480.600342 
	C3852.347900,1481.392456 3849.785400,1481.566284 3848.255615,1481.631592 
	C3828.968018,1482.452759 3809.678711,1483.812256 3790.387207,1483.861328 
	C3712.079834,1484.060547 3633.771240,1483.860474 3555.463135,1483.768433 
	C3551.513916,1483.763794 3547.565430,1483.391846 3542.708984,1483.144653 
	C3542.708984,1283.938599 3542.708984,1085.200195 3542.708984,885.201843 
	C3556.311279,884.018433 3570.191650,884.835449 3584.024170,884.713562 
	C3597.685303,884.593201 3611.348877,884.698975 3625.011230,884.699036 
	C3639.007568,884.699158 3653.003906,884.691284 3668.000488,884.687012 
M3699.271484,1024.094727 
	C3695.718262,1024.094727 3692.165039,1024.094727 3688.115479,1024.094727 
	C3688.115479,1131.106812 3688.115479,1236.837402 3688.115479,1343.684326 
	C3692.248535,1343.684326 3695.824951,1343.685669 3699.401123,1343.684082 
	C3733.374268,1343.668823 3767.360596,1343.070557 3801.315918,1343.841309 
	C3824.185791,1344.360229 3845.117676,1339.292603 3865.850098,1329.794434 
	C3913.987793,1307.740967 3943.317627,1270.005615 3954.799561,1219.773804 
	C3968.708496,1158.923584 3950.072998,1106.365479 3904.585693,1064.213257 
	C3876.051270,1037.771362 3841.604248,1023.810852 3802.129883,1023.891235 
	C3768.489990,1023.959717 3734.850342,1024.019165 3699.271484,1024.094727 
z"/>
<path fill="#020202" opacity="1.000000" stroke="none" 
	d="
M6850.573242,1241.995483 
	C6850.573242,1322.608398 6850.573242,1402.222290 6850.573242,1483.092163 
	C6803.205566,1484.599976 6755.342285,1482.979248 6706.291504,1484.176147 
	C6705.013184,1457.600342 6705.713867,1431.421387 6705.538086,1405.270752 
	C6705.360840,1378.942505 6705.483887,1352.612305 6705.479980,1326.282959 
	C6705.476562,1300.010864 6705.479004,1273.738892 6705.479004,1246.859131 
	C6624.999512,1246.859131 6544.931641,1246.859131 6464.194336,1246.859131 
	C6464.194336,1325.550171 6464.194336,1403.734863 6464.194336,1483.224976 
	C6415.770020,1484.265381 6367.985840,1483.356323 6320.385254,1483.757202 
	C6317.987305,1475.212280 6317.054688,908.181335 6319.262207,885.439636 
	C6367.004395,885.439636 6414.779297,885.439636 6463.564453,885.439636 
	C6463.564453,959.425781 6463.564453,1032.569092 6463.564453,1106.433350 
	C6544.359375,1106.433350 6624.144043,1106.433350 6705.090820,1106.433350 
	C6705.090820,1032.909790 6705.090820,959.488159 6705.090820,885.308594 
	C6754.041992,885.308594 6801.833008,885.308594 6850.202637,885.308594 
	C6850.545410,887.401367 6851.116211,889.249695 6851.114258,891.097168 
	C6850.962891,1007.730408 6850.765625,1124.363525 6850.573242,1241.995483 
z"/>
<path fill="#020202" opacity="1.000000" stroke="none" 
	d="
M5430.000977,1107.228516 
	C5451.644531,1107.227905 5472.288574,1107.227905 5493.557129,1107.227905 
	C5493.557129,1153.651855 5493.557129,1199.436157 5493.557129,1246.395752 
	C5424.380371,1246.395752 5355.274414,1246.395752 5285.428223,1246.395752 
	C5285.428223,1279.343140 5285.428223,1311.117798 5285.428223,1343.369873 
	C5363.398926,1343.369873 5440.609375,1343.369873 5518.727539,1343.369873 
	C5518.727539,1389.957642 5518.727539,1436.077271 5518.727539,1483.552734 
	C5392.431152,1484.184692 5265.974609,1483.915405 5138.098633,1483.795532 
	C5137.945801,1479.795288 5137.672363,1475.979736 5137.672363,1472.164062 
	C5137.666016,1382.857300 5137.751953,1293.550659 5137.688965,1204.243896 
	C5137.637207,1130.932861 5137.361816,1057.621826 5137.294922,984.310852 
	C5137.267090,953.693298 5137.511719,923.075378 5137.667480,892.457886 
	C5137.679199,890.201965 5137.979004,887.947449 5138.185547,885.135742 
	C5263.740723,885.135742 5388.878418,885.135742 5515.395020,885.135742 
	C5515.599121,931.359253 5516.096680,977.419373 5515.283203,1024.285645 
	C5438.079590,1024.285645 5362.234863,1024.285645 5285.492188,1024.285645 
	C5285.492188,1051.876465 5285.492188,1078.674561 5285.492188,1106.866577 
	C5333.244629,1107.492432 5381.126465,1107.033691 5430.000977,1107.228516 
z"/>
<path fill="#020202" opacity="1.000000" stroke="none" 
	d="
M5767.629883,915.646423 
	C5782.033203,906.606628 5795.366211,896.980347 5809.895508,889.759399 
	C5821.073730,884.203857 5833.801270,881.808105 5845.755859,877.758484 
	C5856.227539,874.211182 5866.868164,871.867981 5877.949219,871.442627 
	C5901.602539,870.534668 5925.530273,868.644409 5948.620605,874.355652 
	C5972.693359,880.309692 5996.466309,887.054382 6018.923340,898.985474 
	C6052.349609,916.744873 6077.240723,942.863892 6099.390625,972.330505 
	C6105.133789,979.970032 6109.392578,988.797791 6113.770996,997.367371 
	C6117.125977,1003.934326 6116.627441,1005.479065 6109.918457,1009.432800 
	C6096.438965,1017.376343 6082.585938,1024.685181 6069.114258,1032.641357 
	C6057.078125,1039.749512 6045.389648,1047.443970 6033.470703,1054.753662 
	C6023.326172,1060.974731 6013.035645,1066.957275 6002.889160,1073.175537 
	C6000.079590,1074.897461 5997.554199,1077.083496 5993.898926,1079.798706 
	C5988.170898,1063.012939 5976.322754,1050.827026 5965.303223,1037.982666 
	C5958.076172,1029.558472 5949.475098,1024.117188 5938.524414,1021.989746 
	C5933.010254,1020.918396 5927.684082,1018.843994 5922.300293,1017.138062 
	C5899.800293,1010.009033 5879.326172,1016.451477 5860.384277,1027.906616 
	C5846.280273,1036.436157 5843.403320,1056.660645 5853.160645,1070.163940 
	C5860.508301,1080.333008 5869.958008,1088.408936 5881.822266,1092.737061 
	C5897.092285,1098.307373 5911.382812,1106.320679 5927.687500,1109.473022 
	C5935.969727,1111.074341 5943.464355,1116.387085 5951.587891,1119.247437 
	C5969.662109,1125.611572 5987.907227,1131.488647 6006.083984,1137.560425 
	C6006.395996,1137.664795 6006.758789,1137.660034 6007.038086,1137.814331 
	C6039.638184,1155.855347 6072.655273,1173.122314 6096.556641,1203.297607 
	C6114.322266,1225.726562 6126.120605,1250.514038 6131.530762,1278.578735 
	C6140.890137,1327.127808 6132.185547,1372.131470 6103.869141,1412.531128 
	C6085.583984,1438.618896 6060.750000,1457.676636 6031.870117,1471.240845 
	C6002.379395,1485.091797 5970.744141,1492.104492 5938.932617,1496.687134 
	C5911.205566,1500.681519 5883.107910,1498.511719 5855.788574,1490.396484 
	C5843.677734,1486.798706 5830.942871,1485.211548 5818.964355,1481.271851 
	C5762.571289,1462.723511 5718.750000,1428.484497 5689.955566,1375.995972 
	C5685.657227,1368.160522 5681.569824,1360.209351 5676.849121,1351.300537 
	C5718.149414,1326.023926 5758.880371,1301.104980 5801.200195,1277.383545 
	C5806.718262,1297.293701 5818.178711,1312.888184 5832.802734,1326.367920 
	C5842.988770,1335.757324 5854.548340,1342.445679 5868.012695,1346.415283 
	C5881.732910,1350.459961 5895.116211,1355.366089 5909.596680,1356.389526 
	C5921.111816,1357.203369 5932.023926,1356.148315 5942.597168,1351.075317 
	C5948.858398,1348.071289 5955.623047,1346.104370 5962.189941,1343.752197 
	C5982.942383,1336.319214 5995.075195,1311.175049 5986.631348,1290.948975 
	C5984.080078,1284.838379 5979.116211,1278.748169 5973.632324,1275.072266 
	C5964.633789,1269.039917 5954.694336,1263.881958 5944.469727,1260.304077 
	C5910.292969,1248.344116 5875.728027,1237.498047 5841.479004,1225.739258 
	C5816.163574,1217.047241 5792.604492,1204.670166 5770.783691,1189.145874 
	C5728.275879,1158.905029 5706.925293,1117.130615 5703.755859,1065.509766 
	C5702.462402,1044.441284 5703.262695,1023.515747 5708.873047,1003.072021 
	C5718.591309,967.661438 5737.419922,938.224976 5767.629883,915.646423 
z"/>
<path fill="#020202" opacity="1.000000" stroke="none" 
	d="
M906.891724,633.170044 
	C896.664795,615.658813 886.839661,598.762512 877.113525,582.036377 
	C796.056213,725.096252 715.099792,867.978088 633.526062,1011.949463 
	C630.342224,1007.165039 627.852417,1003.703674 625.649292,1000.068604 
	C607.549255,970.204407 589.662720,940.208801 571.282166,910.518799 
	C568.213074,905.561401 570.308655,902.614746 572.479248,898.860535 
	C607.817871,837.740234 643.134216,776.606995 678.430847,715.462402 
	C721.217529,641.342712 763.923523,567.176453 806.780396,493.097382 
	C826.114075,459.678497 845.721741,426.418091 865.220947,393.095001 
	C868.697693,387.153503 872.251526,381.257172 875.859985,375.188110 
	C877.539673,376.214569 878.690491,376.510803 879.111694,377.232697 
	C981.783142,553.202332 1084.403809,729.201599 1186.516968,904.327576 
	C1165.015503,940.572510 1144.017700,975.968201 1122.441528,1012.338928 
	C1119.742554,1008.080078 1117.131592,1004.335083 1114.896606,1000.377747 
	C1075.799561,931.152771 1036.822754,861.859924 997.663696,792.670166 
	C967.653076,739.644592 937.424927,686.742065 906.891724,633.170044 
z"/>
<path fill="#020202" opacity="1.000000" stroke="none" 
	d="
M2480.000000,1483.890137 
	C2465.730225,1483.893921 2452.460205,1483.893921 2438.450684,1483.893921 
	C2438.450684,1284.417847 2438.450684,1085.387207 2438.450684,885.139160 
	C2486.602051,884.523132 2534.707275,884.711792 2583.347168,885.096680 
	C2583.347168,1084.637085 2583.347168,1283.351929 2583.347168,1483.540527 
	C2549.354980,1483.655396 2515.177490,1483.770874 2480.000000,1483.890137 
z"/>
<path fill="#020202" opacity="1.000000" stroke="none" 
	d="
M1047.575439,1473.661865 
	C990.998169,1570.223755 934.803467,1666.162964 878.561951,1762.074707 
	C877.935974,1763.142212 876.698914,1763.851318 875.113159,1765.311279 
	C873.480042,1762.406982 872.100403,1759.956421 870.723389,1757.504150 
	C855.892578,1731.093262 841.292358,1704.549561 826.180786,1678.300293 
	C800.125854,1633.042114 773.765198,1587.959595 747.509827,1542.816772 
	C719.390381,1494.469116 691.273926,1446.119507 663.051880,1397.831787 
	C660.910156,1394.167480 659.454102,1391.222656 662.095703,1386.943970 
	C683.067627,1352.975830 703.826721,1318.876221 725.278198,1283.791382 
	C775.817810,1373.688599 826.099976,1463.127808 877.027039,1553.714233 
	C894.021484,1523.939331 910.936768,1494.468262 927.690002,1464.905273 
	C944.763672,1434.776855 961.712463,1404.577515 978.652222,1374.373535 
	C995.381042,1344.545288 1012.030090,1314.672485 1029.092163,1284.142578 
	C1044.659302,1309.114136 1060.167603,1333.860596 1075.526978,1358.699097 
	C1081.129395,1367.758911 1086.254150,1377.113892 1091.838867,1386.185181 
	C1094.622925,1390.707275 1094.265503,1394.350830 1091.486328,1398.982422 
	C1076.753784,1423.534058 1062.424194,1448.327637 1047.575439,1473.661865 
z"/>
<path fill="#020202" opacity="1.000000" stroke="none" 
	d="
M855.300659,731.257996 
	C862.000366,719.675049 868.334167,708.731140 875.368652,696.576599 
	C897.062256,729.445557 915.060913,763.415588 934.964966,796.221130 
	C954.976257,829.203552 974.812256,862.292419 994.537292,895.023010 
	C977.349609,920.411377 961.995544,946.755981 947.520874,973.713196 
	C937.470093,992.431274 925.548523,1010.145325 914.450073,1028.300171 
	C903.511658,1046.193359 892.578186,1064.089600 881.580322,1081.946289 
	C880.398071,1083.865967 878.801697,1085.530640 877.341003,1087.385010 
	C838.727600,1022.808655 800.367676,958.656250 761.806213,894.166809 
	C770.489624,879.095215 778.963806,864.442627 787.384949,849.759583 
	C809.913696,810.479065 832.419739,771.185547 855.300659,731.257996 
z"/>
<path fill="#F5F5F5" opacity="1.000000" stroke="none" 
	d="
M3700.240967,1024.088623 
	C3734.850342,1024.019165 3768.489990,1023.959717 3802.129883,1023.891235 
	C3841.604248,1023.810852 3876.051270,1037.771362 3904.585693,1064.213257 
	C3950.072998,1106.365479 3968.708496,1158.923584 3954.799561,1219.773804 
	C3943.317627,1270.005615 3913.987793,1307.740967 3865.850098,1329.794434 
	C3845.117676,1339.292603 3824.185791,1344.360229 3801.315918,1343.841309 
	C3767.360596,1343.070557 3733.374268,1343.668823 3699.401123,1343.684082 
	C3695.824951,1343.685669 3692.248535,1343.684326 3688.115479,1343.684326 
	C3688.115479,1236.837402 3688.115479,1131.106812 3688.115479,1024.094727 
	C3692.165039,1024.094727 3695.718262,1024.094727 3700.240967,1024.088623 
z"/>
</svg>